<svg width="30" height="31" viewBox="0 0 30 31" fill="none" xmlns="http://www.w3.org/2000/svg">
<g clip-path="url(#clip0_109_56)">
<path fill-rule="evenodd" clip-rule="evenodd" d="M15 30.7458C23.2843 30.7458 30 23.9162 30 15.4915C30 7.06683 23.2843 0.237274 15 0.237274C6.71573 0.237274 0 7.06683 0 15.4915C0 23.9162 6.71573 30.7458 15 30.7458Z" fill="#8A2BE2"/>
<path fill-rule="evenodd" clip-rule="evenodd" d="M20.3334 9.23727H9.66675C8.56545 9.23727 7.67341 10.1355 7.67341 11.2373L7.66675 19.2367C7.66675 20.3388 8.56522 21.2373 9.66675 21.2373H20.3334C21.4349 21.2373 22.3334 20.3388 22.3334 19.2373V11.2373C22.3334 10.1358 21.4349 9.23727 20.3334 9.23727ZM10.6561 13.2374C10.3408 13.0474 10.2391 12.6377 10.4292 12.3223C10.6192 12.0069 11.0289 11.9053 11.3442 12.0953L14.9805 14.2863L18.7747 12.0002C19.0905 11.8099 19.5009 11.9117 19.6912 12.2276C19.8811 12.5427 19.7803 12.9521 19.4657 13.143L15.0067 15.8493L15.0025 15.8562L10.6561 13.2374Z" fill="#979797"/>
<mask id="mask0_109_56" style="mask-type:luminance" maskUnits="userSpaceOnUse" x="7" y="9" width="16" height="13">
<path fill-rule="evenodd" clip-rule="evenodd" d="M20.3334 9.23727H9.66675C8.56545 9.23727 7.67341 10.1355 7.67341 11.2373L7.66675 19.2367C7.66675 20.3388 8.56522 21.2373 9.66675 21.2373H20.3334C21.4349 21.2373 22.3334 20.3388 22.3334 19.2373V11.2373C22.3334 10.1358 21.4349 9.23727 20.3334 9.23727ZM10.6561 13.2374C10.3408 13.0474 10.2391 12.6377 10.4292 12.3223C10.6192 12.0069 11.0289 11.9053 11.3442 12.0953L14.9805 14.2863L18.7747 12.0002C19.0905 11.8099 19.5009 11.9117 19.6912 12.2276C19.8811 12.5427 19.7803 12.9521 19.4657 13.143L15.0067 15.8493L15.0025 15.8562L10.6561 13.2374Z" fill="white"/>
</mask>
<g mask="url(#mask0_109_56)">
<rect x="7" y="7.23727" width="16" height="16" fill="#F4C430"/>
</g>
</g>
<defs>
<clipPath id="clip0_109_56">
<rect width="30" height="30.5085" fill="white" transform="translate(0 0.237274)"/>
</clipPath>
</defs>
</svg>
