<svg width="30" height="31" viewBox="0 0 30 31" fill="none" xmlns="http://www.w3.org/2000/svg">
<g clip-path="url(#clip0_109_73)">
<path fill-rule="evenodd" clip-rule="evenodd" d="M15 30.7458C23.2843 30.7458 30 23.9162 30 15.4915C30 7.06683 23.2843 0.237274 15 0.237274C6.71573 0.237274 0 7.06683 0 15.4915C0 23.9162 6.71573 30.7458 15 30.7458Z" fill="#8A2BE2"/>
<path fill-rule="evenodd" clip-rule="evenodd" d="M11.4133 14.4306C12.3733 16.3173 13.92 17.8573 15.8067 18.8239L17.2733 17.3573C17.4533 17.1773 17.72 17.1173 17.9533 17.1973C18.7 17.4439 19.5067 17.5773 20.3333 17.5773C20.7 17.5773 21 17.8773 21 18.2439V20.5706C21 20.9373 20.7 21.2373 20.3333 21.2373C14.0733 21.2373 9 16.1639 9 9.90394C9 9.53727 9.3 9.23727 9.66667 9.23727H12C12.3667 9.23727 12.6667 9.53727 12.6667 9.90394C12.6667 10.7373 12.8 11.5373 13.0467 12.2839C13.12 12.5173 13.0667 12.7773 12.88 12.9639L11.4133 14.4306Z" fill="#F4C430"/>
<mask id="mask0_109_73" style="mask-type:luminance" maskUnits="userSpaceOnUse" x="9" y="9" width="12" height="13">
<path fill-rule="evenodd" clip-rule="evenodd" d="M11.4133 14.4306C12.3733 16.3173 13.92 17.8573 15.8067 18.8239L17.2733 17.3573C17.4533 17.1773 17.72 17.1173 17.9533 17.1973C18.7 17.4439 19.5067 17.5773 20.3333 17.5773C20.7 17.5773 21 17.8773 21 18.2439V20.5706C21 20.9373 20.7 21.2373 20.3333 21.2373C14.0733 21.2373 9 16.1639 9 9.90394C9 9.53727 9.3 9.23727 9.66667 9.23727H12C12.3667 9.23727 12.6667 9.53727 12.6667 9.90394C12.6667 10.7373 12.8 11.5373 13.0467 12.2839C13.12 12.5173 13.0667 12.7773 12.88 12.9639L11.4133 14.4306Z" fill="white"/>
</mask>
<g mask="url(#mask0_109_73)">
<rect x="7" y="7.23727" width="16" height="16" fill="#F4C430"/>
</g>
</g>
<defs>
<clipPath id="clip0_109_73">
<rect width="30" height="30.5085" fill="white" transform="translate(0 0.237274)"/>
</clipPath>
</defs>
</svg>
