<svg width="87" height="67" viewBox="0 0 87 67" fill="none" xmlns="http://www.w3.org/2000/svg">
<path d="M44.3768 34.2448C46.4722 32.4309 48.153 30.1876 49.3049 27.6669C50.4568 25.1462 51.053 22.4072 51.053 19.6358C51.053 14.428 48.9842 9.4336 45.3018 5.75118C41.6194 2.06876 36.6249 7.02611e-07 31.4172 7.02611e-07C26.2095 7.02611e-07 21.215 2.06876 17.5326 5.75118C13.8502 9.4336 11.7815 14.428 11.7815 19.6358C11.7814 22.4072 12.3776 25.1462 13.5295 27.6669C14.6815 30.1876 16.3622 32.4309 18.4576 34.2448C12.9601 36.7341 8.29597 40.7541 5.02275 45.8241C1.74953 50.8941 0.0057802 56.7996 0 62.8344C0 63.876 0.413752 64.8748 1.15024 65.6113C1.88672 66.3478 2.88561 66.7616 3.92715 66.7616C4.9687 66.7616 5.96758 66.3478 6.70407 65.6113C7.44055 64.8748 7.8543 63.876 7.8543 62.8344C7.8543 56.5851 10.3368 50.5918 14.7557 46.1729C19.1746 41.754 25.1679 39.2715 31.4172 39.2715C37.6665 39.2715 43.6598 41.754 48.0787 46.1729C52.4976 50.5918 54.9801 56.5851 54.9801 62.8344C54.9801 63.876 55.3939 64.8748 56.1303 65.6113C56.8668 66.3478 57.8657 66.7616 58.9073 66.7616C59.9488 66.7616 60.9477 66.3478 61.6842 65.6113C62.4207 64.8748 62.8344 63.876 62.8344 62.8344C62.8286 56.7996 61.0849 50.8941 57.8117 45.8241C54.5384 40.7541 49.8743 36.7341 44.3768 34.2448ZM31.4172 31.4172C29.0871 31.4172 26.8092 30.7262 24.8718 29.4317C22.9343 28.1371 21.4243 26.2971 20.5326 24.1443C19.6409 21.9915 19.4075 19.6227 19.8621 17.3373C20.3167 15.0519 21.4388 12.9527 23.0865 11.305C24.7341 9.65734 26.8334 8.53527 29.1188 8.08068C31.4041 7.62609 33.773 7.8594 35.9258 8.75111C38.0786 9.64282 39.9186 11.1529 41.2131 13.0903C42.5077 15.0278 43.1987 17.3056 43.1987 19.6358C43.1987 22.7604 41.9574 25.757 39.748 27.9665C37.5385 30.1759 34.5418 31.4172 31.4172 31.4172ZM69.6677 32.6739C72.1809 29.8437 73.8226 26.3475 74.3952 22.606C74.9677 18.8646 74.4467 15.0373 72.8949 11.5851C71.343 8.13284 68.8264 5.20267 65.6481 3.14731C62.4698 1.09194 58.7651 -0.00101163 54.9801 7.02611e-07C53.9386 7.02611e-07 52.9397 0.413753 52.2032 1.15024C51.4667 1.88672 51.053 2.88561 51.053 3.92715C51.053 4.9687 51.4667 5.96758 52.2032 6.70407C52.9397 7.44055 53.9386 7.8543 54.9801 7.8543C58.1047 7.8543 61.1014 9.09556 63.3109 11.305C65.5203 13.5145 66.7616 16.5111 66.7616 19.6358C66.756 21.6984 66.209 23.7235 65.1752 25.5085C64.1415 27.2935 62.6572 28.7757 60.8708 29.8071C60.2886 30.1429 59.8023 30.6226 59.4585 31.2002C59.1147 31.7778 58.9249 32.4339 58.9073 33.1059C58.8908 33.7726 59.0444 34.4325 59.3536 35.0233C59.6628 35.6142 60.1174 36.1166 60.6745 36.4832L62.2061 37.5043L62.7166 37.7792C67.4504 40.0244 71.4439 43.5756 74.227 48.0146C77.01 52.4535 78.4666 57.5953 78.4252 62.8344C78.4252 63.876 78.839 64.8748 79.5754 65.6113C80.3119 66.3478 81.3108 66.7616 82.3523 66.7616C83.3939 66.7616 84.3928 66.3478 85.1293 65.6113C85.8658 64.8748 86.2795 63.876 86.2795 62.8344C86.3116 56.8079 84.8022 50.8733 81.8947 45.5945C78.9872 40.3156 74.7782 35.8679 69.6677 32.6739Z" fill="#F4C430"/>
</svg>
