<svg xmlns="http://www.w3.org/2000/svg" xmlns:xlink="http://www.w3.org/1999/xlink" width="500" zoomAndPan="magnify" viewBox="0 0 375 374.999991" height="500" preserveAspectRatio="xMidYMid meet" version="1.0"><defs><g/><clipPath id="f1ff82cdd3"><path d="M 40.847656 172.523438 L 334.152344 172.523438 L 334.152344 202 L 40.847656 202 Z M 40.847656 172.523438 " clip-rule="nonzero"/></clipPath></defs><rect x="-37.5" width="450" fill="#ffffff" y="-37.499999" height="449.999989" fill-opacity="1"/><rect x="-37.5" width="450" fill="#ffffff" y="-37.499999" height="449.999989" fill-opacity="1"/><rect x="-37.5" width="450" fill="#16161d" y="-37.499999" height="449.999989" fill-opacity="1"/><g fill="#8a2be2" fill-opacity="1"><g transform="translate(70.891945, 232.008926)"><g><path d="M 44.964844 -89 C 63.058594 -76.496094 61.996094 -50.289062 57.070312 -39.511719 L 54.277344 -31.527344 L 53.746094 -31.527344 L 32.59375 -82.082031 L 39.246094 -89 L 39.246094 -89.796875 L 0.929688 -89.796875 L 0.929688 -89 L 41.242188 1.996094 L 42.703125 1.996094 L 81.816406 -89 L 81.816406 -89.796875 L 44.964844 -89.796875 Z M 44.964844 -89 "/></g></g></g><g fill="#8a2be2" fill-opacity="1"><g transform="translate(150.045436, 232.008926)"><g><path d="M 22.21875 -21.152344 L 22.21875 -21.816406 L 32.859375 -28.601562 C 54.144531 -38.582031 69.3125 -53.347656 69.3125 -71.171875 C 69.3125 -86.339844 56.804688 -91.792969 45.632812 -91.792969 C 34.058594 -91.792969 18.625 -84.742188 1.332031 -51.085938 L 1.730469 -50.421875 L 29 -57.472656 C 26.207031 -68.777344 24.210938 -82.746094 31.929688 -83.679688 C 37.914062 -84.34375 41.773438 -79.421875 42.570312 -70.507812 C 43.902344 -55.476562 34.191406 -41.90625 21.683594 -25.542969 L 2.394531 -0.796875 L 2.394531 0 L 67.980469 0 L 68.914062 -0.929688 L 68.914062 -33.925781 L 68.113281 -33.925781 C 65.453125 -25.277344 60.398438 -21.152344 52.28125 -21.152344 Z M 22.21875 -21.152344 "/></g></g></g><g fill="#8a2be2" fill-opacity="1"><g transform="translate(220.950987, 232.008926)"><g><path d="M 44.964844 -89 C 63.058594 -76.496094 61.996094 -50.289062 57.070312 -39.511719 L 54.277344 -31.527344 L 53.746094 -31.527344 L 32.59375 -82.082031 L 39.246094 -89 L 39.246094 -89.796875 L 0.929688 -89.796875 L 0.929688 -89 L 41.242188 1.996094 L 42.703125 1.996094 L 81.816406 -89 L 81.816406 -89.796875 L 44.964844 -89.796875 Z M 44.964844 -89 "/></g></g></g><g clip-path="url(#f1ff82cdd3)"><path fill="#16161d" d="M 40.847656 172.523438 L 334.726562 172.523438 L 334.726562 201.738281 L 40.847656 201.738281 Z M 40.847656 172.523438 " fill-opacity="1" fill-rule="nonzero"/></g><g fill="#f4c430" fill-opacity="1"><g transform="translate(92.07441, 190.332643)"><g><path d="M 3.375 0 L 3.765625 0 L 3.765625 -6.34375 L 7.09375 -6.34375 L 7.09375 -6.71875 L 0.046875 -6.71875 L 0.046875 -6.34375 L 3.375 -6.34375 Z M 3.375 0 "/></g></g></g><g fill="#f4c430" fill-opacity="1"><g transform="translate(106.875694, 190.332643)"><g><path d="M 0.480469 0 L 0.871094 0 L 0.871094 -3.316406 L 6.988281 -3.316406 L 6.988281 0 L 7.378906 0 L 7.378906 -6.71875 L 6.988281 -6.71875 L 6.988281 -3.699219 L 0.871094 -3.699219 L 0.871094 -6.71875 L 0.480469 -6.71875 Z M 0.480469 0 "/></g></g></g><g fill="#f4c430" fill-opacity="1"><g transform="translate(122.395048, 190.332643)"><g><path d="M 0.480469 0 L 7.027344 0 L 7.027344 -0.375 L 0.871094 -0.375 L 0.871094 -3.308594 L 6.546875 -3.308594 L 6.546875 -3.679688 L 0.871094 -3.679688 L 0.871094 -6.34375 L 6.929688 -6.34375 L 6.929688 -6.71875 L 0.480469 -6.71875 Z M 0.480469 0 "/></g></g></g><g fill="#f4c430" fill-opacity="1"><g transform="translate(137.272927, 190.332643)"><g><path d="M 3.625 0 L 4.09375 0 L 7.714844 -6.71875 L 7.265625 -6.71875 L 3.863281 -0.414062 L 3.851562 -0.414062 L 0.449219 -6.71875 L 0 -6.71875 Z M 3.625 0 "/></g></g></g><g fill="#f4c430" fill-opacity="1"><g transform="translate(152.64867, 190.332643)"><g><path d="M 0.363281 0 L 6.585938 0 L 6.585938 -0.375 L 0.777344 -0.375 C 0.777344 -1.78125 1.359375 -2.425781 3.007812 -2.796875 L 4.285156 -3.085938 C 5.867188 -3.441406 6.441406 -3.921875 6.441406 -4.839844 C 6.441406 -6.019531 5.253906 -6.957031 3.574219 -6.957031 C 2.203125 -6.957031 1.082031 -6.34375 0.554688 -5.386719 L 0.863281 -5.148438 C 1.324219 -6.027344 2.339844 -6.585938 3.59375 -6.585938 C 5.023438 -6.585938 6.039062 -5.800781 6.039062 -4.871094 C 6.039062 -4.121094 5.558594 -3.757812 4.199219 -3.441406 L 2.914062 -3.152344 C 1.035156 -2.722656 0.375 -1.984375 0.375 -0.382812 Z M 0.363281 0 "/></g></g></g><g fill="#f4c430" fill-opacity="1"><g transform="translate(167.258471, 190.332643)"><g><path d="M 3.625 0 L 4.09375 0 L 7.714844 -6.71875 L 7.265625 -6.71875 L 3.863281 -0.414062 L 3.851562 -0.414062 L 0.449219 -6.71875 L 0 -6.71875 Z M 3.625 0 "/></g></g></g><g fill="#f4c430" fill-opacity="1"><g transform="translate(182.634214, 190.332643)"><g><path d="M 0.480469 0 L 0.871094 0 L 0.871094 -2.789062 L 5.234375 -2.789062 C 6.625 -2.789062 7.449219 -3.585938 7.449219 -4.753906 C 7.449219 -5.914062 6.625 -6.71875 5.234375 -6.71875 L 0.480469 -6.71875 Z M 0.871094 -3.164062 L 0.871094 -6.34375 L 5.214844 -6.34375 C 6.382812 -6.34375 7.054688 -5.695312 7.054688 -4.753906 C 7.054688 -3.816406 6.382812 -3.164062 5.214844 -3.164062 Z M 0.871094 -3.164062 "/></g></g></g><g fill="#f4c430" fill-opacity="1"><g transform="translate(197.885491, 190.332643)"><g><path d="M 7.238281 0.191406 C 7.628906 0.191406 7.90625 -0.0078125 8.089844 -0.289062 L 7.832031 -0.546875 C 7.675781 -0.289062 7.503906 -0.171875 7.273438 -0.171875 C 6.871094 -0.171875 6.699219 -0.480469 6.566406 -0.871094 L 6.238281 -1.792969 C 6.058594 -2.328125 5.816406 -2.769531 5.394531 -3 L 5.394531 -3.007812 C 6.691406 -3.078125 7.554688 -3.804688 7.554688 -4.859375 C 7.554688 -5.953125 6.585938 -6.71875 5.214844 -6.71875 L 0.480469 -6.71875 L 0.480469 0 L 0.871094 0 L 0.871094 -2.933594 L 4.523438 -2.933594 C 5.261719 -2.933594 5.597656 -2.433594 5.816406 -1.773438 L 6.171875 -0.816406 C 6.375 -0.230469 6.652344 0.191406 7.238281 0.191406 Z M 0.863281 -3.308594 L 0.863281 -6.34375 L 5.195312 -6.34375 C 6.335938 -6.34375 7.140625 -5.710938 7.140625 -4.820312 C 7.140625 -3.949219 6.335938 -3.308594 5.195312 -3.308594 Z M 0.863281 -3.308594 "/></g></g></g><g fill="#f4c430" fill-opacity="1"><g transform="translate(213.63462, 190.332643)"><g><path d="M 4.90625 0.238281 C 7.628906 0.238281 9.429688 -1.199219 9.429688 -3.355469 C 9.429688 -5.519531 7.628906 -6.957031 4.90625 -6.957031 C 2.183594 -6.957031 0.382812 -5.519531 0.382812 -3.355469 C 0.382812 -1.199219 2.183594 0.238281 4.90625 0.238281 Z M 4.90625 -0.132812 C 2.425781 -0.132812 0.777344 -1.429688 0.777344 -3.355469 C 0.777344 -5.289062 2.425781 -6.585938 4.90625 -6.585938 C 7.390625 -6.585938 9.039062 -5.289062 9.039062 -3.355469 C 9.039062 -1.429688 7.390625 -0.132812 4.90625 -0.132812 Z M 4.90625 -0.132812 "/></g></g></g><g fill="#f4c430" fill-opacity="1"><g transform="translate(231.107114, 190.332643)"><g><path d="M 2.550781 0.191406 C 3.9375 0.191406 4.734375 -0.699219 4.734375 -2.242188 L 4.734375 -6.71875 L 4.34375 -6.71875 L 4.34375 -2.261719 C 4.34375 -0.9375 3.679688 -0.183594 2.53125 -0.183594 C 1.4375 -0.183594 0.699219 -0.785156 0.507812 -1.878906 L 0.144531 -1.726562 C 0.394531 -0.5 1.253906 0.191406 2.550781 0.191406 Z M 2.550781 0.191406 "/></g></g></g><g fill="#f4c430" fill-opacity="1"><g transform="translate(243.88823, 190.332643)"><g><path d="M 0.480469 0 L 7.027344 0 L 7.027344 -0.375 L 0.871094 -0.375 L 0.871094 -3.308594 L 6.546875 -3.308594 L 6.546875 -3.679688 L 0.871094 -3.679688 L 0.871094 -6.34375 L 6.929688 -6.34375 L 6.929688 -6.71875 L 0.480469 -6.71875 Z M 0.480469 0 "/></g></g></g><g fill="#f4c430" fill-opacity="1"><g transform="translate(258.766109, 190.332643)"><g><path d="M 4.734375 0.238281 C 6.804688 0.238281 8.464844 -0.882812 9.011719 -2.65625 L 8.644531 -2.789062 C 8.15625 -1.167969 6.632812 -0.132812 4.734375 -0.132812 C 2.320312 -0.132812 0.777344 -1.390625 0.777344 -3.355469 C 0.777344 -5.328125 2.195312 -6.585938 4.4375 -6.585938 C 6.066406 -6.585938 7.410156 -5.75 7.886719 -4.449219 L 8.242188 -4.589844 C 7.707031 -6.039062 6.21875 -6.957031 4.429688 -6.957031 C 1.957031 -6.957031 0.382812 -5.558594 0.382812 -3.355469 C 0.382812 -1.160156 2.070312 0.238281 4.734375 0.238281 Z M 4.734375 0.238281 "/></g></g></g><g fill="#f4c430" fill-opacity="1"><g transform="translate(275.798189, 190.332643)"><g><path d="M 3.375 0 L 3.765625 0 L 3.765625 -6.34375 L 7.09375 -6.34375 L 7.09375 -6.71875 L 0.046875 -6.71875 L 0.046875 -6.34375 L 3.375 -6.34375 Z M 3.375 0 "/></g></g></g><g fill="#f4c430" fill-opacity="1"><g transform="translate(94.690554, 258.359524)"><g><path d="M 0.328125 0 L 3.839844 0 L 3.839844 -0.257812 L 0.597656 -0.257812 L 0.597656 -4.617188 L 0.328125 -4.617188 Z M 0.328125 0 "/></g></g></g><g fill="#f4c430" fill-opacity="1"><g transform="translate(103.831448, 258.359524)"><g><path d="M 0.328125 0 L 4.828125 0 L 4.828125 -0.257812 L 0.597656 -0.257812 L 0.597656 -2.273438 L 4.496094 -2.273438 L 4.496094 -2.527344 L 0.597656 -2.527344 L 0.597656 -4.359375 L 4.761719 -4.359375 L 4.761719 -4.617188 L 0.328125 -4.617188 Z M 0.328125 0 "/></g></g></g><g fill="#f4c430" fill-opacity="1"><g transform="translate(114.058978, 258.359524)"><g><path d="M 0.03125 0 L 0.324219 0 L 0.976562 -1.199219 L 4.398438 -1.199219 L 5.058594 0 L 5.347656 0 L 2.84375 -4.617188 L 2.535156 -4.617188 Z M 1.113281 -1.457031 L 2.6875 -4.386719 L 2.699219 -4.386719 L 4.261719 -1.457031 Z M 1.113281 -1.457031 "/></g></g></g><g fill="#f4c430" fill-opacity="1"><g transform="translate(124.707993, 258.359524)"><g><path d="M 0.328125 0 L 2.832031 0 C 4.570312 0 5.53125 -0.824219 5.53125 -2.304688 C 5.53125 -3.792969 4.570312 -4.617188 2.832031 -4.617188 L 0.328125 -4.617188 Z M 0.597656 -0.257812 L 0.597656 -4.359375 L 2.832031 -4.359375 C 4.394531 -4.359375 5.261719 -3.628906 5.261719 -2.304688 C 5.261719 -0.988281 4.394531 -0.257812 2.832031 -0.257812 Z M 0.597656 -0.257812 "/></g></g></g><g fill="#f4c430" fill-opacity="1"><g transform="translate(135.771908, 258.359524)"><g><path d="M 0.328125 0 L 0.597656 0 L 0.597656 -4.617188 L 0.328125 -4.617188 Z M 0.328125 0 "/></g></g></g><g fill="#f4c430" fill-opacity="1"><g transform="translate(141.969003, 258.359524)"><g><path d="M 0.328125 0 L 0.597656 0 L 0.597656 -4.339844 L 0.605469 -4.339844 L 4.703125 0 L 5.070312 0 L 5.070312 -4.617188 L 4.800781 -4.617188 L 4.800781 -0.269531 L 4.792969 -0.269531 L 0.703125 -4.617188 L 0.328125 -4.617188 Z M 0.328125 0 "/></g></g></g><g fill="#f4c430" fill-opacity="1"><g transform="translate(152.637779, 258.359524)"><g><path d="M 3.371094 0.164062 C 4.695312 0.164062 5.710938 -0.410156 6.136719 -1.304688 L 6.144531 -1.304688 L 6.15625 0 L 6.40625 0 L 6.40625 -2.515625 L 2.128906 -2.515625 L 2.128906 -2.257812 L 6.152344 -2.257812 C 6.152344 -0.996094 4.980469 -0.09375 3.386719 -0.09375 C 1.738281 -0.09375 0.535156 -1.027344 0.535156 -2.304688 C 0.535156 -3.601562 1.640625 -4.53125 3.160156 -4.523438 C 4.214844 -4.523438 5.164062 -3.996094 5.40625 -3.253906 L 5.664062 -3.324219 C 5.40625 -4.183594 4.339844 -4.78125 3.160156 -4.78125 C 1.480469 -4.78125 0.261719 -3.746094 0.261719 -2.304688 C 0.261719 -0.875 1.566406 0.164062 3.371094 0.164062 Z M 3.371094 0.164062 "/></g></g></g><g fill="#f4c430" fill-opacity="1"><g transform="translate(164.544662, 258.359524)"><g/></g></g><g fill="#f4c430" fill-opacity="1"><g transform="translate(172.328908, 258.359524)"><g><path d="M 0.328125 0 L 3.425781 0 C 4.539062 0 5.175781 -0.46875 5.175781 -1.257812 C 5.175781 -1.863281 4.808594 -2.285156 4.175781 -2.402344 L 4.175781 -2.410156 C 4.726562 -2.535156 5.042969 -2.917969 5.042969 -3.445312 C 5.042969 -4.183594 4.476562 -4.617188 3.496094 -4.617188 L 0.328125 -4.617188 Z M 0.597656 -2.527344 L 0.597656 -4.359375 L 3.496094 -4.359375 C 4.308594 -4.359375 4.773438 -4.023438 4.773438 -3.445312 C 4.773438 -2.863281 4.308594 -2.527344 3.503906 -2.527344 Z M 0.597656 -0.257812 L 0.597656 -2.277344 L 3.417969 -2.277344 C 4.359375 -2.277344 4.90625 -1.910156 4.90625 -1.269531 C 4.90625 -0.625 4.359375 -0.257812 3.417969 -0.257812 Z M 0.597656 -0.257812 "/></g></g></g><g fill="#f4c430" fill-opacity="1"><g transform="translate(182.905489, 258.359524)"><g><path d="M 0.328125 0 L 3.839844 0 L 3.839844 -0.257812 L 0.597656 -0.257812 L 0.597656 -4.617188 L 0.328125 -4.617188 Z M 0.328125 0 "/></g></g></g><g fill="#f4c430" fill-opacity="1"><g transform="translate(192.046386, 258.359524)"><g><path d="M 0.03125 0 L 0.324219 0 L 0.976562 -1.199219 L 4.398438 -1.199219 L 5.058594 0 L 5.347656 0 L 2.84375 -4.617188 L 2.535156 -4.617188 Z M 1.113281 -1.457031 L 2.6875 -4.386719 L 2.699219 -4.386719 L 4.261719 -1.457031 Z M 1.113281 -1.457031 "/></g></g></g><g fill="#f4c430" fill-opacity="1"><g transform="translate(202.695403, 258.359524)"><g><path d="M 3.253906 0.164062 C 4.675781 0.164062 5.816406 -0.605469 6.191406 -1.824219 L 5.941406 -1.917969 C 5.605469 -0.804688 4.558594 -0.09375 3.253906 -0.09375 C 1.59375 -0.09375 0.535156 -0.953125 0.535156 -2.304688 C 0.535156 -3.660156 1.507812 -4.523438 3.050781 -4.523438 C 4.167969 -4.523438 5.089844 -3.953125 5.421875 -3.054688 L 5.664062 -3.15625 C 5.292969 -4.148438 4.273438 -4.78125 3.042969 -4.78125 C 1.34375 -4.78125 0.261719 -3.820312 0.261719 -2.304688 C 0.261719 -0.796875 1.421875 0.164062 3.253906 0.164062 Z M 3.253906 0.164062 "/></g></g></g><g fill="#f4c430" fill-opacity="1"><g transform="translate(214.40472, 258.359524)"><g><path d="M 0.328125 0 L 0.597656 0 L 0.597656 -2.167969 L 1.449219 -2.707031 L 4.140625 0 L 4.519531 0 L 1.671875 -2.84375 L 4.472656 -4.617188 L 3.992188 -4.617188 L 0.605469 -2.46875 L 0.597656 -2.46875 L 0.597656 -4.617188 L 0.328125 -4.617188 Z M 0.328125 0 "/></g></g></g><g fill="#f4c430" fill-opacity="1"><g transform="translate(224.191015, 258.359524)"><g/></g></g><g fill="#f4c430" fill-opacity="1"><g transform="translate(231.975262, 258.359524)"><g><path d="M 2.265625 0 L 2.535156 0 L 2.535156 -1.871094 L 4.800781 -4.617188 L 4.453125 -4.617188 L 2.402344 -2.128906 L 2.398438 -2.128906 L 0.34375 -4.617188 L -0.0117188 -4.617188 L 2.265625 -1.871094 Z M 2.265625 0 "/></g></g></g><g fill="#f4c430" fill-opacity="1"><g transform="translate(242.044734, 258.359524)"><g><path d="M 3.371094 0.164062 C 5.242188 0.164062 6.480469 -0.824219 6.480469 -2.304688 C 6.480469 -3.792969 5.242188 -4.78125 3.371094 -4.78125 C 1.5 -4.78125 0.261719 -3.792969 0.261719 -2.304688 C 0.261719 -0.824219 1.5 0.164062 3.371094 0.164062 Z M 3.371094 -0.09375 C 1.667969 -0.09375 0.535156 -0.980469 0.535156 -2.304688 C 0.535156 -3.636719 1.667969 -4.523438 3.371094 -4.523438 C 5.078125 -4.523438 6.210938 -3.636719 6.210938 -2.304688 C 6.210938 -0.980469 5.078125 -0.09375 3.371094 -0.09375 Z M 3.371094 -0.09375 "/></g></g></g><g fill="#f4c430" fill-opacity="1"><g transform="translate(254.056992, 258.359524)"><g><path d="M 2.695312 0.164062 C 4.234375 0.164062 5.128906 -0.613281 5.128906 -1.949219 L 5.128906 -4.617188 L 4.859375 -4.617188 L 4.859375 -1.949219 C 4.859375 -0.769531 4.0625 -0.0976562 2.699219 -0.0976562 C 1.332031 -0.0976562 0.535156 -0.769531 0.535156 -1.949219 L 0.535156 -4.617188 L 0.261719 -4.617188 L 0.261719 -1.949219 C 0.261719 -0.613281 1.160156 0.164062 2.695312 0.164062 Z M 2.695312 0.164062 "/></g></g></g><g fill="#f4c430" fill-opacity="1"><g transform="translate(264.719182, 258.359524)"><g><path d="M 2.316406 0 L 2.589844 0 L 2.589844 -4.359375 L 4.875 -4.359375 L 4.875 -4.617188 L 0.03125 -4.617188 L 0.03125 -4.359375 L 2.316406 -4.359375 Z M 2.316406 0 "/></g></g></g><g fill="#f4c430" fill-opacity="1"><g transform="translate(274.894034, 258.359524)"><g><path d="M 0.328125 0 L 0.597656 0 L 0.597656 -2.277344 L 4.800781 -2.277344 L 4.800781 0 L 5.070312 0 L 5.070312 -4.617188 L 4.800781 -4.617188 L 4.800781 -2.542969 L 0.597656 -2.542969 L 0.597656 -4.617188 L 0.328125 -4.617188 Z M 0.328125 0 "/></g></g></g></svg>